#!OML:ASF F:\VICON\USERDATA\INSTALL\rory3\rory3.ASF
:FULLY-SPECIFIED
:DEGREES
1139
root 5.57464 17.4473 1.4081 19.6035 2.21015 0.721638
lowerback -10.5411 -1.12107 9.9358
upperback -14.2013 -1.88923 0.653879
thorax -9.8761 -1.92214 -4.84153
lowerneck -3.94012 19.8348 10.8161
upperneck 10.0208 25.9086 0.132544
head 4.96786 13.1412 0.20657
rclavicle 1.59028e-015 2.70347e-014
rhumerus -8.74777 -30.3569 30.7045
rradius 112.183
rwrist -63.2754
rhand -4.23685 -43.2985
rfingers 7.12502
rthumb 21.5265 -72.1223
lclavicle 1.59028e-015 2.70347e-014
lhumerus 22.688 26.1487 -14.0716
lradius 32.6089
lwrist 55.6595
lhand -17.9421 -13.436
lfingers 7.12502
lthumb 8.32618 16.3799
rfemur -11.1184 11.3021 -8.87401
rtibia 9.65061
rfoot -14.6989 -23.0568
rtoes 39.4964
lfemur -18.6359 2.96488 -30.5843
ltibia 16.1926
lfoot -15.8841 2.24633
ltoes 8.10438
1140
root 5.58088 17.4461 1.41686 19.2821 2.05618 0.593156
lowerback -10.3186 -1.06243 10.1388
upperback -14.0937 -1.80009 0.643749
thorax -9.87775 -1.89446 -4.96082
lowerneck -3.91277 19.8425 10.8165
upperneck 10.0475 25.9176 0.17679
head 4.96666 13.1487 0.217548
rclavicle -3.08116e-014 1.74931e-014
rhumerus -8.77973 -30.3153 30.7271
rradius 112.22
rwrist -63.4123
rhand -4.28609 -43.4252
rfingers 7.12502
rthumb 21.4792 -72.2544
lclavicle -3.08116e-014 1.74931e-014
lhumerus 22.7419 26.2026 -13.9977
lradius 32.6011
lwrist 55.6118
lhand -17.5952 -13.3495
lfingers 7.12502
lthumb 8.661 16.4528
rfemur -10.8242 11.6397 -8.76701
rtibia 9.58291
rfoot -14.6195 -23.0773
rtoes 39.3534
lfemur -18.2768 3.09809 -30.4775
ltibia 16.2305
lfoot -15.993 2.34971
ltoes 8.29264
1141
root 5.5829 17.4443 1.42234 19.1623 1.91096 0.554922
lowerback -10.3007 -1.00967 10.1884
upperback -14.0193 -1.73527 0.627016
thorax -9.79262 -1.86173 -5.00828
lowerneck -3.94418 19.8399 10.8582
upperneck 10.0515 25.9134 0.122535
head 4.98503 13.1444 0.203608
rclavicle -3.81667e-014 1.11319e-014
rhumerus -8.78847 -30.354 30.7058
rradius 112.132
rwrist -63.3058
rhand -3.63901 -43.2515
rfingers 7.12502
rthumb 22.1006 -72.0085
lclavicle -3.81667e-014 1.11319e-014
lhumerus 22.7633 26.2442 -13.986
lradius 32.6365
lwrist 55.7872
lhand -17.7414 -13.347
lfingers 7.12502
lthumb 8.51988 16.4611
rfemur -10.7666 11.848 -8.77404
rtibia 9.54638
rfoot -13.7478 -23.5626
rtoes 37.8308
lfemur -18.1396 3.11552 -30.4513
ltibia 16.284
lfoot -16.1139 2.4473
ltoes 8.69381
1142
root 5.5741 17.4488 1.40085 19.6181 2.25512 0.724092
lowerback -10.525 -1.1401 9.91202
upperback -14.1808 -1.91292 0.652802
thorax -9.86269 -1.93018 -4.82988
lowerneck -3.81512 19.8235 10.9125
upperneck 9.83736 25.9149 -0.0278782
head 4.92403 13.138 0.132876
rclavicle 2.06736e-014 -4.77083e-015
rhumerus -8.80232 -30.405 30.679
rradius 112.066
rwrist -63.1401
rhand -3.19417 -43.0628
rfingers 7.12502
rthumb 22.5276 -71.7686
lclavicle 2.06736e-014 -4.77083e-015
lhumerus 22.8126 26.3412 -13.9072
lradius 32.6344
lwrist 55.7436
lhand -17.8323 -13.2117
lfingers 7.12502
lthumb 8.43214 16.6
rfemur -11.0612 11.3182 -8.86194
rtibia 9.51402
rfoot -14.8997 -23.0214
rtoes 39.7384
lfemur -18.7498 2.83395 -30.548
ltibia 16.3581
lfoot -16.0273 2.20569
ltoes 8.71553
1143
root 5.57074 17.4523 1.39411 19.7906 2.3934 0.655019
lowerback -10.6139 -1.16354 9.93529
upperback -14.2437 -1.94877 0.694805
thorax -9.89339 -1.95109 -4.79778
lowerneck -3.53587 19.7981 10.9684
upperneck 9.49959 25.9206 -0.190686
head 4.80289 13.134 0.0350535
rclavicle 2.40529e-014 2.54444e-014
rhumerus -8.85325 -30.3481 30.7172
rradius 112.129
rwrist -63.2457
rhand -3.41431 -43.2781
rfingers 7.12502
rthumb 22.3163 -72.0094
lclavicle 2.40529e-014 2.54444e-014
lhumerus 22.7845 26.2756 -13.9357
lradius 32.6603
lwrist 55.6606
lhand -17.8858 -13.1929
lfingers 7.12502
lthumb 8.38051 16.6209
rfemur -11.2466 11.1636 -8.75536
rtibia 9.58993
rfoot -15.7732 -22.5049
rtoes 41.0847
lfemur -19.0316 2.78906 -30.4552
ltibia 16.4309
lfoot -15.9513 2.14412
ltoes 8.44039
1144
root 5.57157 17.4529 1.39476 19.8217 2.42209 0.581302
lowerback -10.6986 -1.15224 10.0358
upperback -14.2209 -1.94781 0.713774
thorax -9.82593 -1.95576 -4.83621
lowerneck -3.37446 19.7981 10.9932
upperneck 9.26786 25.9458 -0.309223
head 4.72476 13.1406 -0.0272552
rclavicle -2.60408e-014 -1.35174e-014
rhumerus -8.85922 -30.315 30.7401
rradius 112.151
rwrist -63.2955
rhand -3.64982 -43.4879
rfingers 7.12502
rthumb 22.0902 -72.246
lclavicle -2.60408e-014 -1.35174e-014
lhumerus 22.7082 26.1609 -14.0351
lradius 32.7118
lwrist 55.8176
lhand -18.0961 -13.3145
lfingers 7.12502
lthumb 8.17762 16.5073
rfemur -11.3935 11.1654 -8.6844
rtibia 9.76883
rfoot -15.0792 -22.9151
rtoes 39.9541
lfemur -19.1 2.8107 -30.3836
ltibia 16.4777
lfoot -15.9249 2.12198
ltoes 8.36196
